<?xml version="1.0" ?><!DOCTYPE svg  PUBLIC '-//W3C//DTD SVG 1.1//EN'  'http://www.w3.org/Graphics/SVG/1.1/DTD/svg11.dtd'><svg id="Layer_1" style="enable-background:new 0 0 124 124;" version="1.1" viewBox="0 0 124 124" xml:space="preserve" xmlns="http://www.w3.org/2000/svg" xmlns:xlink="http://www.w3.org/1999/xlink"><style type="text/css">
	.st0{fill:#E73530;}
	.st1{fill:#3957A7;}
	.st2{fill:#FFFFFF;}
	.st3{fill:#F9A533;}
	.st4{fill:#1C3663;}
	.st5{fill:#203C73;}
	.st6{fill:#1D1E1E;}
	.st7{fill:#EE3A3F;}
	.st8{fill:#0067B2;}
	.st9{fill:#FAAC18;}
	.st10{fill:#6AB845;}
	.st11{fill:#231F20;}
	.st12{fill-rule:evenodd;clip-rule:evenodd;fill:#FFFFFF;}
	.st13{fill:#008060;}
	.st14{fill:#13457C;}
	.st15{fill:#007CC3;}
	.st16{fill:#009DDD;}
	.st17{fill:#FF9900;}
	.st18{fill-rule:evenodd;clip-rule:evenodd;fill:#231F20;}
	.st19{fill:#862165;}
	.st20{fill:#BC268E;}
	.st21{fill:#9A9FB8;}
	.st22{fill:#0C489C;}
	.st23{fill:#EC1C2E;}
	.st24{fill:#0084C4;}
	.st25{fill:none;stroke:#FFFFFF;stroke-width:0.215;}
	.st26{fill:#045EA0;}
	.st27{fill-rule:evenodd;clip-rule:evenodd;fill:#FAA929;}
	.st28{fill:#084D95;}
	.st29{fill:url(#SVGID_1_);}
	.st30{fill:url(#SVGID_2_);}
	.st31{fill:url(#SVGID_3_);}
	.st32{fill:url(#SVGID_4_);}
	.st33{fill:#1C9F6F;}
	.st34{fill:#8BB43F;}
	.st35{fill-rule:evenodd;clip-rule:evenodd;fill:#FBB231;}
	.st36{fill-rule:evenodd;clip-rule:evenodd;fill:#EC1C2E;}
	.st37{fill:none;stroke:#FFFFFF;stroke-width:0.216;stroke-miterlimit:2.6131;}
	.st38{fill:#273D49;}
	.st39{fill-rule:evenodd;clip-rule:evenodd;fill:#FFDE37;}
	.st40{fill:#FFB92C;}
	.st41{fill:#0078A9;}
	.st42{fill:#F1F2F2;}
	.st43{fill:#F58220;}
	.st44{fill:url(#SVGID_5_);}
	.st45{fill:#001722;}
</style><g><path class="st41" d="M123,94.1c0,3.3-2.7,6-6,6H7c-3.3,0-6-2.7-6-6V29.9c0-3.3,2.7-6,6-6h110c3.3,0,6,2.7,6,6V94.1z"/><g><g><path class="st2" d="M38.9,60.2V59l-0.6,1.2h-5.1l-0.6-1.3v1.3h-9.4L22,57.6h-1.9L19,60.2h-4.9v-8l3.6-8.1h6.9l1,2.3v-2.3h8.4     l1.8,3.9l1.8-3.9h26.5c0,0,1.4,0,2.3,0.6l0-0.6h6.7V45c0,0,1.2-0.9,3-0.9c1.8,0,11.8,0,11.8,0l1,2.3v-2.3h7.6l1.4,2.3v-2.3h7.2     v16.1h-7.4l-1.7-2.8v2.8h-9.2l-1.3-2.9h-1.8l-1.2,2.9h-5.6c0,0-2.1,0-3.6-1.1c0,0.6,0,1.1,0,1.1H62c0,0,0-3.2,0-3.8     c0-0.5-0.4-0.5-0.4-0.5h-0.4v4.3H38.9z"/><path class="st2" d="M33.3,63.7h14.6l2.1,2.4l2.2-2.4h11.2c0,0,1.1,0,2.1,0.6v-0.6c0,0,8.7,0,10,0c1.3,0,2.3,0.6,2.3,0.6v-0.6     h12.9v0.6c0,0,0.9-0.6,2.1-0.6c1.2,0,8.4,0,8.4,0v0.6c0,0,1.1-0.6,2.2-0.6c1.1,0,6.6,0,6.6,0v15.2c0,0-0.9,1-2.7,1h-8.7v-0.5     c0,0-0.8,0.5-2.1,0.5c-1.3,0-23,0-23,0s0-3.5,0-3.9c0-0.4-0.2-0.5-0.5-0.5h-0.3v4.4h-7.2v-4.4c0,0-0.8,0.4-2.1,0.4     c-1.3,0-2.6,0-2.6,0v3.9h-8.9l-2-2.5l-2.2,2.5H33.3V63.7z"/><polygon class="st41" points="79.3,66.1 88.5,66.1 88.5,68.6 82.1,68.6 82.1,70.7 88.3,70.7 88.3,72.9 82.1,72.9 82.1,75.2      88.5,75.2 88.5,77.6 79.3,77.6    "/><path class="st41" d="M106.2,70.6c3.4,0.2,3.7,1.9,3.7,3.7c0,2.1-1.8,3.3-3.6,3.3h-5.9v-2.4h4.6c0.8,0,1.9,0,1.9-1.1     c0-0.5-0.2-0.9-1-0.9c-0.4-0.1-1.7-0.1-1.9-0.1c-3.1-0.1-3.8-1.6-3.8-3.5c0-2.1,1.5-3.3,3.3-3.3h5.9v2.4h-4.3c-1,0-2-0.1-2,1     c0,0.7,0.5,0.8,1.2,0.9C104.5,70.5,106,70.6,106.2,70.6z"/><path class="st41" d="M95.7,70.6c3.4,0.2,3.7,1.9,3.7,3.7c0,2.1-1.8,3.3-3.6,3.3h-5.9v-2.4h4.6c0.8,0,1.9,0,1.9-1.1     c0-0.5-0.2-0.9-1-0.9C95,73.1,93.7,73,93.5,73c-3.1-0.1-3.8-1.6-3.8-3.5c0-2.1,1.5-3.3,3.3-3.3h5.9v2.4h-4.3c-1,0-2-0.1-2,1     c0,0.7,0.5,0.8,1.2,0.9C93.9,70.5,95.5,70.6,95.7,70.6z"/><path class="st41" d="M62.4,66.2h-9.8l-3.2,3.5l-3.1-3.6H35.2v11.4h10.7l3.4-3.8l3.3,3.8h5.4v-3.9h3.8c1.5,0,4.1,0,4.1-4.1     C65.8,66.8,63.8,66.2,62.4,66.2z M44.4,75.2H38v-2.3h6.2v-2.2H38v-2.1l6.8,0l2.7,3.1L44.4,75.2z M55.1,76.5l-4-4.8l4-4.5V76.5z      M61.5,71.4H58v-2.7h3.5c1.2,0,1.5,0.8,1.5,1.3C63,70.7,62.6,71.4,61.5,71.4z"/><path class="st41" d="M76,72.4c1.5-0.8,1.9-1.8,1.9-3.2c0-2.4-2-3.1-3.4-3.1h-7.3v11.4H70v-4h3.7c1,0,1.4,1,1.4,1.9l0.1,2.1h2.7     l-0.1-2.3C77.8,73.4,77.3,72.5,76,72.4z M73.5,71.2H70v-2.6h3.5c1.2,0,1.5,0.8,1.5,1.3C75.1,70.7,74.7,71.2,73.5,71.2z"/><rect class="st41" height="11.4" width="2.8" x="68.4" y="46.4"/><polygon class="st41" points="45.4,46.4 54.6,46.4 54.6,48.9 48.2,48.9 48.2,51 54.4,51 54.4,53.2 48.2,53.2 48.2,55.5      54.6,55.5 54.6,57.9 45.4,57.9    "/><path class="st41" d="M65,52.7c1.5-0.8,1.9-1.8,1.9-3.2c0-2.4-2-3.1-3.4-3.1h-7.3v11.4H59v-4h3.7c1,0,1.4,1,1.4,1.9l0.1,2.1h2.7     l-0.1-2.3C66.8,53.7,66.3,52.8,65,52.7z M62.5,51.5H59v-2.6h3.5c1.2,0,1.5,0.8,1.5,1.3C64.1,51,63.7,51.5,62.5,51.5z"/><path class="st41" d="M38.9,46.4l-3.4,7.7l-3.4-7.7h-4.4v11l-4.9-11h-3.7l-5,11.4h3l1.1-2.5h5.6l1.1,2.5h5.6v-8.5l3.7,8.5h2.5     l3.8-8.3v8.3h2.8V46.4H38.9z M19.2,52.8l1.7-4l1.7,4H19.2z"/><path class="st41" d="M100.1,46.4v7.9l-4.7-7.9h-4.1v10.7l-4.8-10.7h-3.7l-3.9,8.8c0,0-1.6,0-1.8,0c-0.7-0.1-1.7-0.6-1.7-2.6     v-0.8c0-2.7,1.5-2.9,3.3-2.9h1.7v-2.5h-3.7c-1.3,0-4,1-4.1,5.7c-0.1,3.2,1.3,5.8,4.4,5.8h3.7l1.1-2.5h5.6l1.1,2.5H94v-8.4l5,8.4     h3.8V46.4H100.1z M82.9,52.8l1.7-4l1.8,4H82.9z"/></g></g></g></svg>