<?xml version="1.0" encoding="UTF-8" standalone="no"?><!-- Generator: Gravit.io --><svg xmlns="http://www.w3.org/2000/svg" xmlns:xlink="http://www.w3.org/1999/xlink" style="isolation:isolate" viewBox="0 0 250 60" width="250pt" height="60pt"><circle vector-effect="non-scaling-stroke" cx="32.93999999999997" cy="30.999999999999996" r="14.94" fill="rgb(235,235,235)"/><path d=" M 65.2 22.92 L 65.2 22.92 Q 66.48 22.92 67.48 23.51 L 67.48 23.51 L 67.48 23.51 Q 68.48 24.1 69.04 25.13 L 69.04 25.13 L 69.04 25.13 Q 69.6 26.16 69.6 27.44 L 69.6 27.44 L 69.6 27.7 L 69.6 27.7 Q 69.6 28.98 69.04 30.02 L 69.04 30.02 L 69.04 30.02 Q 68.48 31.06 67.48 31.65 L 67.48 31.65 L 67.48 31.65 Q 66.48 32.24 65.2 32.24 L 65.2 32.24 L 61.9 32.24 L 61.9 36.68 L 57.48 36.68 L 57.48 22.92 L 65.2 22.92 L 65.2 22.92 Z  M 61.9 26.18 L 61.9 29.02 L 63.72 29.02 L 63.72 29.02 Q 64.42 29.02 64.77 28.66 L 64.77 28.66 L 64.77 28.66 Q 65.12 28.3 65.12 27.68 L 65.12 27.68 L 65.12 27.52 L 65.12 27.52 Q 65.12 26.88 64.77 26.53 L 64.77 26.53 L 64.77 26.53 Q 64.42 26.18 63.72 26.18 L 63.72 26.18 L 61.9 26.18 L 61.9 26.18 Z  M 84.98 27.14 L 84.98 27.14 Q 84.98 28.4 84.3 29.42 L 84.3 29.42 L 84.3 29.42 Q 83.62 30.44 82.32 30.92 L 82.32 30.92 L 85.38 36.68 L 80.42 36.68 L 77.98 31.66 L 76.34 31.66 L 76.34 36.68 L 71.92 36.68 L 71.92 22.92 L 80.34 22.92 L 80.34 22.92 Q 81.82 22.92 82.87 23.49 L 82.87 23.49 L 82.87 23.49 Q 83.92 24.06 84.45 25.03 L 84.45 25.03 L 84.45 25.03 Q 84.98 26 84.98 27.14 L 84.98 27.14 L 84.98 27.14 Z  M 80.48 27.32 L 80.48 27.32 Q 80.48 26.78 80.12 26.42 L 80.12 26.42 L 80.12 26.42 Q 79.76 26.06 79.24 26.06 L 79.24 26.06 L 76.34 26.06 L 76.34 28.6 L 79.24 28.6 L 79.24 28.6 Q 79.76 28.6 80.12 28.23 L 80.12 28.23 L 80.12 28.23 Q 80.48 27.86 80.48 27.32 L 80.48 27.32 L 80.48 27.32 Z  M 93.98 22.68 L 93.98 22.68 Q 97.54 22.68 99.48 24.5 L 99.48 24.5 L 99.48 24.5 Q 101.42 26.32 101.42 29.8 L 101.42 29.8 L 101.42 29.8 Q 101.42 33.28 99.48 35.1 L 99.48 35.1 L 99.48 35.1 Q 97.54 36.92 93.98 36.92 L 93.98 36.92 L 93.98 36.92 Q 90.42 36.92 88.49 35.11 L 88.49 35.11 L 88.49 35.11 Q 86.56 33.3 86.56 29.8 L 86.56 29.8 L 86.56 29.8 Q 86.56 26.3 88.49 24.49 L 88.49 24.49 L 88.49 24.49 Q 90.42 22.68 93.98 22.68 L 93.98 22.68 L 93.98 22.68 Z  M 93.98 25.98 L 93.98 25.98 Q 92.56 25.98 91.82 26.84 L 91.82 26.84 L 91.82 26.84 Q 91.08 27.7 91.08 29.16 L 91.08 29.16 L 91.08 30.44 L 91.08 30.44 Q 91.08 31.9 91.82 32.76 L 91.82 32.76 L 91.82 32.76 Q 92.56 33.62 93.98 33.62 L 93.98 33.62 L 93.98 33.62 Q 95.4 33.62 96.15 32.76 L 96.15 32.76 L 96.15 32.76 Q 96.9 31.9 96.9 30.44 L 96.9 30.44 L 96.9 29.16 L 96.9 29.16 Q 96.9 27.7 96.15 26.84 L 96.15 26.84 L 96.15 26.84 Q 95.4 25.98 93.98 25.98 L 93.98 25.98 L 93.98 25.98 Z " fill="rgb(24,71,147)"/><path d=" M 116.24 22.68 L 116.24 22.68 Q 118.88 22.68 120.58 23.75 L 120.58 23.75 L 120.58 23.75 Q 122.28 24.82 122.32 26.92 L 122.32 26.92 L 122.32 27.16 L 118.18 27.16 L 118.18 27.08 L 118.18 27.08 Q 118.18 26.48 117.74 26.08 L 117.74 26.08 L 117.74 26.08 Q 117.3 25.68 116.4 25.68 L 116.4 25.68 L 116.4 25.68 Q 115.52 25.68 115.05 25.94 L 115.05 25.94 L 115.05 25.94 Q 114.58 26.2 114.58 26.58 L 114.58 26.58 L 114.58 26.58 Q 114.58 27.12 115.22 27.38 L 115.22 27.38 L 115.22 27.38 Q 115.86 27.64 117.28 27.92 L 117.28 27.92 L 117.28 27.92 Q 118.94 28.26 120.01 28.63 L 120.01 28.63 L 120.01 28.63 Q 121.08 29 121.88 29.84 L 121.88 29.84 L 121.88 29.84 Q 122.68 30.68 122.7 32.12 L 122.7 32.12 L 122.7 32.12 Q 122.7 34.56 121.05 35.74 L 121.05 35.74 L 121.05 35.74 Q 119.4 36.92 116.64 36.92 L 116.64 36.92 L 116.64 36.92 Q 113.42 36.92 111.63 35.84 L 111.63 35.84 L 111.63 35.84 Q 109.84 34.76 109.84 32.02 L 109.84 32.02 L 114.02 32.02 L 114.02 32.02 Q 114.02 33.06 114.56 33.41 L 114.56 33.41 L 114.56 33.41 Q 115.1 33.76 116.24 33.76 L 116.24 33.76 L 116.24 33.76 Q 117.08 33.76 117.63 33.58 L 117.63 33.58 L 117.63 33.58 Q 118.18 33.4 118.18 32.84 L 118.18 32.84 L 118.18 32.84 Q 118.18 32.34 117.57 32.09 L 117.57 32.09 L 117.57 32.09 Q 116.96 31.84 115.58 31.56 L 115.58 31.56 L 115.58 31.56 Q 113.9 31.2 112.8 30.81 L 112.8 30.81 L 112.8 30.81 Q 111.7 30.42 110.88 29.52 L 110.88 29.52 L 110.88 29.52 Q 110.06 28.62 110.06 27.08 L 110.06 27.08 L 110.06 27.08 Q 110.06 24.82 111.81 23.75 L 111.81 23.75 L 111.81 23.75 Q 113.56 22.68 116.24 22.68 L 116.24 22.68 L 116.24 22.68 Z  M 124.9 36.68 L 124.9 22.92 L 136.8 22.92 L 136.8 26.22 L 129.32 26.22 L 129.32 28.12 L 135.72 28.12 L 135.72 31.28 L 129.32 31.28 L 129.32 33.38 L 136.94 33.38 L 136.94 36.68 L 124.9 36.68 L 124.9 36.68 Z  M 152.4 27.14 L 152.4 27.14 Q 152.4 28.4 151.72 29.42 L 151.72 29.42 L 151.72 29.42 Q 151.04 30.44 149.74 30.92 L 149.74 30.92 L 152.8 36.68 L 147.84 36.68 L 145.4 31.66 L 143.76 31.66 L 143.76 36.68 L 139.34 36.68 L 139.34 22.92 L 147.76 22.92 L 147.76 22.92 Q 149.24 22.92 150.29 23.49 L 150.29 23.49 L 150.29 23.49 Q 151.34 24.06 151.87 25.03 L 151.87 25.03 L 151.87 25.03 Q 152.4 26 152.4 27.14 L 152.4 27.14 L 152.4 27.14 Z  M 147.9 27.32 L 147.9 27.32 Q 147.9 26.78 147.54 26.42 L 147.54 26.42 L 147.54 26.42 Q 147.18 26.06 146.66 26.06 L 146.66 26.06 L 143.76 26.06 L 143.76 28.6 L 146.66 28.6 L 146.66 28.6 Q 147.18 28.6 147.54 28.23 L 147.54 28.23 L 147.54 28.23 Q 147.9 27.86 147.9 27.32 L 147.9 27.32 L 147.9 27.32 Z  M 163.42 36.68 L 158.3 36.68 L 153.42 22.92 L 158.14 22.92 L 160.9 32.12 L 160.98 32.12 L 163.76 22.92 L 168.28 22.92 L 163.42 36.68 L 163.42 36.68 Z  M 174.74 36.68 L 170.32 36.68 L 170.32 22.92 L 174.74 22.92 L 174.74 36.68 L 174.74 36.68 Z  M 184.46 22.68 L 184.46 22.68 Q 187.52 22.68 189.3 24.21 L 189.3 24.21 L 189.3 24.21 Q 191.08 25.74 191.08 28.58 L 191.08 28.58 L 186.86 28.58 L 186.86 28.58 Q 186.86 27.38 186.23 26.68 L 186.23 26.68 L 186.23 26.68 Q 185.6 25.98 184.44 25.98 L 184.44 25.98 L 184.44 25.98 Q 183.1 25.98 182.47 26.82 L 182.47 26.82 L 182.47 26.82 Q 181.84 27.66 181.84 29.16 L 181.84 29.16 L 181.84 30.44 L 181.84 30.44 Q 181.84 31.92 182.47 32.77 L 182.47 32.77 L 182.47 32.77 Q 183.1 33.62 184.4 33.62 L 184.4 33.62 L 184.4 33.62 Q 185.68 33.62 186.34 32.96 L 186.34 32.96 L 186.34 32.96 Q 187 32.3 187 31.1 L 187 31.1 L 191.08 31.1 L 191.08 31.1 Q 191.08 33.92 189.35 35.42 L 189.35 35.42 L 189.35 35.42 Q 187.62 36.92 184.46 36.92 L 184.46 36.92 L 184.46 36.92 Q 180.94 36.92 179.13 35.12 L 179.13 35.12 L 179.13 35.12 Q 177.32 33.32 177.32 29.8 L 177.32 29.8 L 177.32 29.8 Q 177.32 26.28 179.13 24.48 L 179.13 24.48 L 179.13 24.48 Q 180.94 22.68 184.46 22.68 L 184.46 22.68 L 184.46 22.68 Z  M 193.46 36.68 L 193.46 22.92 L 205.36 22.92 L 205.36 26.22 L 197.88 26.22 L 197.88 28.12 L 204.28 28.12 L 204.28 31.28 L 197.88 31.28 L 197.88 33.38 L 205.5 33.38 L 205.5 36.68 L 193.46 36.68 L 193.46 36.68 Z " fill="rgb(0,0,0)"/><g><g><path d=" M 38.601 28.912 C 39.157 28.541 39.813 28.383 40.455 28.455 L 47.769 21.139 L 43.673 17.043 L 36.358 24.359 C 36.432 25.009 36.268 25.673 35.882 26.236 L 38.601 28.912 Z " fill="rgb(0,0,0)"/><path d=" M 25.842 37.822 L 25.577 37.557 L 24.19 38.678 L 21.854 42.359 L 22.452 42.957 L 26.136 40.621 L 27.256 39.238 L 26.99 38.969 L 31.642 34.316 L 30.486 33.176 L 25.842 37.822 Z " fill="rgb(0,0,0)"/><path d=" M 32.204 24.922 C 32.741 23.002 32.254 20.856 30.747 19.346 C 29.245 17.85 27.124 17.359 25.215 17.877 L 28.448 21.109 L 27.6 24.275 L 24.43 25.123 L 21.198 21.893 C 20.682 23.801 21.172 25.922 22.671 27.422 C 24.242 28.994 26.506 29.455 28.486 28.811 L 28.504 28.829 L 41.803 42.128 C 42.329 42.653 43.019 42.919 43.708 42.919 C 44.398 42.919 45.086 42.653 45.614 42.128 C 46.665 41.079 46.665 39.374 45.614 38.317 L 32.204 24.922 Z  M 43.94 41.676 C 43.374 41.676 42.915 41.215 42.915 40.647 C 42.915 40.077 43.374 39.618 43.94 39.618 C 44.51 39.618 44.971 40.077 44.971 40.647 C 44.972 41.215 44.511 41.676 43.94 41.676 Z " fill="rgb(0,0,0)"/></g></g></svg>